<?xml version="1.0" encoding="UTF-8" standalone="no"?>
<svg
   xmlns:dc="http://purl.org/dc/elements/1.1/"
   xmlns:cc="http://creativecommons.org/ns#"
   xmlns:rdf="http://www.w3.org/1999/02/22-rdf-syntax-ns#"
   xmlns:svg="http://www.w3.org/2000/svg"
   xmlns="http://www.w3.org/2000/svg"
   viewBox="0 0 1600 1600"
   height="1600"
   width="1600"
   xml:space="preserve"
   id="svg2"
   version="1.1"><metadata
     id="metadata8"><rdf:RDF><cc:Work
         rdf:about=""><dc:format>image/svg+xml</dc:format><dc:type
           rdf:resource="http://purl.org/dc/dcmitype/StillImage" /></cc:Work></rdf:RDF></metadata><defs
     id="defs6" /><g
     transform="matrix(1.3333333,0,0,-1.3333333,0,1600)"
     id="g10"><g
       transform="scale(0.1)"
       id="g12"><path
         id="path14"
         style="fill:#000000;fill-opacity:1;fill-rule:nonzero;stroke:none"
         d="M 0,0 H 12000 V 12000 H 0 Z" /><path
         id="path16"
         style="fill:#ffffff;fill-opacity:1;fill-rule:nonzero;stroke:none"
         d="M 0,0 H 12000 V 12000 H 0 Z" /><path
         id="path18"
         style="fill:#207178;fill-opacity:1;fill-rule:nonzero;stroke:none"
         d="m 10785.9,7114.86 8.3,17.81 c 135.8,290.99 23.5,637.38 -257.2,793.51 l -13.4,7.42 c -218.3,121.4 -340.9,363.13 -309.9,610.84 l 2,15.48 c 40.1,320.6 -176,617.17 -493.56,677.37 l -11.35,2.16 c -246.66,46.75 -439.78,239.23 -487.24,485.63 v 0 c -60.98,316.52 -357.17,531.62 -677.21,491.62 l -18.96,-2.3 c -247.57,-30.9 -489.14,91.4 -610.68,309.2 l -6.48,11.6 c -156.87,281.1 -504.78,392.7 -796.06,255.4 l -5.2,-2.5 c -226.51,-106.8 -495.25,-64.9 -678.55,105.7 l -14.77,13.7 c -235.13,218.8 -599.49,218.8 -834.62,0 l -16.5,-15.3 c -182.42,-169.8 -449.6,-212.1 -675.61,-107.1 l -20.34,9.5 c -290.85,135.2 -636.84,23.2 -793.11,-256.8 l -7.94,-14.2 c -121.54,-217.8 -363.12,-340.1 -610.69,-309.2 l -17.6,2.2 c -320.61,40 -617.14,-175.8 -677.49,-493.08 l -2.03,-10.68 c -46.88,-246.52 -239.55,-439.45 -486.1,-486.79 l -0.65,-0.12 c -316.91,-60.84 -532.21,-357.04 -492.13,-677.09 l 2.1,-16.82 c 31.02,-247.71 -91.61,-489.44 -309.87,-610.84 l -13.35,-7.42 c -280.69,-156.13 -392.98,-502.51 -257.23,-793.5 l 6.7,-14.37 c 106.35,-227.93 62.36,-497.69 -110.9,-680.09 l -1.66,-1.74 c -222.979,-234.74 -224.542,-602.41 -3.58,-839.05 l 10.42,-11.16 c 170.39,-182.47 212.86,-450.08 107.32,-676.29 l -8.32,-17.81 c -135.76,-290.99 -23.47,-637.38 257.24,-793.5 l 13.35,-7.43 c 218.26,-121.39 340.88,-363.12 309.87,-610.84 l -1.94,-15.48 c -40.13,-320.59 175.95,-617.16 493.55,-677.36 l 10.32,-1.96 c 247.17,-46.85 440.53,-240.02 487.51,-487.05 l 1.84,-9.65 c 60.34,-317.24 356.87,-533.06 677.48,-493.05 l 17.61,2.19 c 247.57,30.9 489.14,-91.41 610.68,-309.19 l 7.96,-14.24 c 156.27,-280.01 502.25,-392.04 793.11,-256.79 l 20.34,9.46 c 226,105.08 493.19,62.76 675.61,-107.01 l 16.49,-15.35 c 235.13,-218.824 599.49,-218.824 834.62,0 l 16.5,15.35 c 182.42,169.77 449.6,212.09 675.61,107.01 l 20.34,-9.46 c 290.86,-135.24 636.84,-23.22 793.12,256.79 l 7.94,14.24 c 121.55,217.78 363.12,340.09 610.68,309.19 l 17.6,-2.19 c 320.61,-40.01 617.15,175.81 677.49,493.05 l 1.83,9.65 c 46.99,247.03 240.34,440.2 487.52,487.05 l 10.32,1.96 c 317.65,60.2 533.65,356.77 493.55,677.36 l -1.9,15.48 c -31.1,247.72 91.6,489.45 309.8,610.84 l 2.1,1.18 c 285.3,158.68 395.9,513.18 251.4,805.81 l -3.4,6.77 c -112.8,228.28 -72.4,502.48 101.4,688.6 l 7,7.43 c 219.5,235.17 219.5,600.09 0,835.25 l -13.8,14.75 c -170.4,182.43 -212.9,450.05 -107.3,676.25" /><path
         id="path20"
         style="fill:#f8f6f1;fill-opacity:1;fill-rule:nonzero;stroke:none"
         d="m 5347.33,4209.98 c 0,-81.17 -263.79,-615.5 -304.37,-716.95 -13.53,-27.06 -101.45,-229.97 -148.8,-229.97 -20.29,0 -20.29,47.35 -20.29,54.11 0,67.64 13.53,128.51 33.82,189.38 27.05,108.22 338.18,716.95 426.11,716.95 13.53,0 13.53,-13.52 13.53,-13.52 z m 2746.05,2556.67 c 0,20.29 -13.52,74.4 -40.58,74.4 -67.64,0 -493.75,-216.44 -581.67,-250.26 -169.1,-74.4 -344.95,-128.5 -520.81,-189.38 -40.58,-13.53 -250.26,-108.22 -284.07,-108.22 -27.06,0 -33.82,27.06 -33.82,54.11 0,74.4 135.27,372 169.09,466.7 81.16,236.72 121.75,486.98 148.8,737.24 27.06,277.31 40.58,554.62 40.58,831.93 0,385.53 -27.05,994.26 -446.4,1170.12 -54.11,27.05 -101.46,33.82 -162.33,33.82 -439.64,0 -960.44,-744.01 -1190.41,-1075.43 -290.83,-412.59 -601.96,-1001.02 -601.96,-1515.07 0,-500.51 270.54,-716.95 750.76,-716.95 148.8,0 804.88,74.41 804.88,304.37 0,94.69 -189.38,108.22 -250.25,108.22 -182.62,0 -365.24,-60.87 -554.63,-60.87 -243.49,0 -459.93,81.16 -459.93,365.23 0,514.05 892.81,2008.82 1379.8,2191.44 20.28,13.52 47.34,13.52 74.39,13.52 311.13,0 338.19,-689.89 338.19,-892.8 0,-777.82 -277.31,-1995.29 -723.71,-2637.84 -108.22,-155.56 -229.97,-297.6 -344.95,-453.16 -385.53,-507.28 -899.57,-1210.7 -1102.48,-1819.43 -54.11,-162.33 -108.22,-358.48 -108.22,-534.34 0,-114.98 27.05,-284.07 175.85,-284.07 142.04,0 311.13,169.09 405.82,263.78 351.72,399.06 581.68,892.81 757.54,1393.32 74.4,209.68 135.27,432.88 229.96,635.79 250.26,547.86 392.3,791.35 913.1,1143.06 216.44,142.04 480.22,223.2 710.19,338.19 128.51,60.87 507.27,243.49 507.27,412.58" /></g></g></svg>