<?xml version="1.0" standalone="no"?>
<!DOCTYPE svg PUBLIC "-//W3C//DTD SVG 20010904//EN"
 "http://www.w3.org/TR/2001/REC-SVG-20010904/DTD/svg10.dtd">
<svg version="1.0" xmlns="http://www.w3.org/2000/svg"
 width="700.000000pt" height="700.000000pt" viewBox="0 0 700.000000 700.000000"
 preserveAspectRatio="xMidYMid meet">
<metadata>
Joe Easterly
</metadata>
<g transform="translate(0.000000,700.000000) scale(0.100000,-0.100000)"
fill="#000000" stroke="none">
<path d="M3417 6450 c-55 -14 -104 -42 -174 -98 -84 -68 -138 -87 -243 -87
-72 0 -96 5 -155 30 -59 24 -84 29 -155 30 -73 0 -94 -4 -145 -28 -73 -34
-124 -82 -177 -164 -42 -67 -86 -106 -158 -144 -39 -20 -65 -24 -195 -29 -136
-6 -155 -9 -207 -34 -73 -35 -150 -118 -177 -191 -12 -31 -21 -63 -21 -73 0
-24 -44 -116 -76 -157 -39 -51 -108 -93 -204 -121 -133 -40 -204 -96 -260
-204 -21 -39 -25 -65 -30 -195 -6 -121 -11 -159 -28 -197 -28 -62 -91 -130
-163 -173 -109 -67 -169 -165 -177 -289 -3 -62 1 -85 32 -178 20 -59 36 -127
36 -151 0 -69 -35 -166 -80 -222 -95 -120 -128 -209 -116 -314 9 -72 42 -144
96 -206 59 -68 92 -143 98 -224 4 -57 -1 -81 -33 -176 -32 -96 -36 -119 -33
-181 5 -77 36 -157 82 -211 14 -17 57 -52 94 -76 80 -53 137 -113 165 -176 17
-37 22 -74 27 -191 4 -105 11 -156 23 -185 46 -105 120 -171 233 -205 132 -41
154 -52 204 -97 62 -56 93 -108 115 -192 34 -133 97 -216 203 -268 52 -25 70
-28 202 -33 129 -5 151 -8 200 -31 67 -32 113 -76 173 -166 79 -118 170 -168
307 -168 71 1 95 5 150 29 136 60 270 45 382 -44 35 -28 92 -65 128 -82 117
-58 260 -41 365 42 81 65 120 88 174 106 73 24 176 15 266 -22 59 -24 84 -29
155 -29 135 1 227 53 305 174 50 78 110 135 174 164 37 17 73 22 192 27 138 5
148 7 212 38 102 50 160 126 192 253 22 86 60 153 112 199 53 46 93 66 186 91
89 25 166 74 212 137 54 74 68 129 69 272 1 120 2 128 33 190 37 75 61 101
158 167 85 59 138 132 161 223 21 82 14 145 -28 247 -27 65 -32 91 -32 158 0
97 19 145 99 249 70 92 88 140 89 241 1 71 -3 88 -31 145 -18 36 -55 93 -83
128 -88 111 -104 244 -44 382 24 54 28 79 29 150 0 73 -4 94 -28 145 -34 73
-82 124 -164 177 -67 42 -106 86 -144 158 -20 39 -24 65 -29 190 -9 185 -30
242 -118 322 -53 48 -83 63 -178 88 -146 39 -235 122 -275 255 -33 114 -59
163 -116 216 -84 79 -122 92 -298 99 -130 5 -156 9 -195 30 -73 37 -107 68
-154 139 -85 127 -174 186 -298 197 -55 6 -76 2 -173 -31 -96 -32 -119 -36
-181 -33 -85 6 -158 37 -229 98 -27 24 -73 54 -102 67 -59 27 -166 38 -226 23z
m422 -891 c192 -96 262 -370 232 -909 -21 -369 -54 -550 -141 -769 -57 -143
-70 -198 -48 -206 7 -3 43 6 78 21 36 14 128 49 205 76 77 27 224 87 327 133
103 47 194 85 202 85 9 0 19 -12 22 -27 21 -84 -116 -183 -461 -332 -161 -70
-233 -110 -341 -191 -107 -81 -202 -179 -267 -276 -76 -115 -192 -366 -257
-559 -116 -339 -213 -555 -337 -745 -146 -223 -287 -350 -389 -350 -42 0 -59
12 -85 60 -22 42 -15 190 15 304 86 324 259 617 729 1239 163 215 195 264 257
389 198 404 320 957 307 1388 -6 196 -22 285 -67 376 -72 147 -167 136 -346
-41 -288 -284 -625 -900 -624 -1140 1 -184 136 -247 428 -199 111 18 245 15
280 -7 26 -16 29 -54 6 -87 -52 -75 -359 -145 -535 -123 -114 15 -185 45 -245
105 -68 69 -95 139 -102 269 -13 255 91 537 331 897 139 208 301 407 405 498
174 150 293 185 421 121z"/>
<path d="M3068 2428 c-122 -161 -247 -451 -221 -510 9 -21 10 -20 36 14 36 47
237 489 237 521 0 18 -30 4 -52 -25z"/>
</g>
</svg>
